<svg version="1.1" xmlns="http://www.w3.org/2000/svg" xmlns:xlink="http://www.w3.org/1999/xlink" width="48" height="48"><defs><linearGradient x1="6.11345" y1="17.83793" x2="80.72238" y2="68.9979" gradientUnits="userSpaceOnUse" id="color-1"><stop offset="0" stop-color="#000000" stop-opacity="0.3"></stop><stop offset="1" stop-color="#000000" stop-opacity="0"></stop></linearGradient><filter id="dropshadow-base"><feColorMatrix type="matrix" values="0 0 0 0 0  0 0 0 0 0  0 0 0 0 0  0 0 0 .8 0"></feColorMatrix> <feOffset dx="0" dy="1"></feOffset> <feGaussianBlur stdDeviation="1"></feGaussianBlur> <feComposite in="SourceGraphic"></feComposite></filter><filter id="dropshadow-banner" x="-10%" y="-10%" width="120%" height="130%"><feColorMatrix type="matrix" values="0 0 0 0 0  0 0 0 0 0  0 0 0 0 0  0 0 0 .4 0"></feColorMatrix> <feOffset dx="0" dy="1"></feOffset> <feGaussianBlur stdDeviation="0.5"></feGaussianBlur> <feComposite in="SourceGraphic"></feComposite></filter></defs><g fill="none" fill-rule="nonzero" stroke="none" stroke-width="none" stroke-linecap="butt" stroke-linejoin="miter" stroke-miterlimit="10" stroke-dasharray="" stroke-dashoffset="0" font-family="none" font-weight="none" font-size="none" text-anchor="none" style="mix-blend-mode: normal"><path d="M2,24c0,-12.15026 9.84974,-22 22,-22c12.15026,0 22,9.84974 22,22c0,12.15026 -9.84974,22 -22,22c-12.15026,0 -22,-9.84974 -22,-22z" id="base 1 5" fill="#2d92a8" stroke-width="1"></path><path d="M6.69462,25.4587c-0.78255,-0.78255 -0.77481,-2.1268 0.02323,-2.88494c0.28205,-0.27533 7.48769,-4.46575 7.91076,-4.60678c0.36936,-0.12088 1.07446,-0.07387 1.45725,0.10074l0.00002,-0.00002c0.21335,0.09363 0.4039,0.2276 0.56684,0.39054l5.66938,5.66938c-0.00288,-0.05517 -0.0043,-0.11196 -0.0043,-0.17051c0,-0.42307 0.03357,-0.60439 0.16118,-0.87301c0.18132,-0.3895 0.57752,-0.7857 0.9133,-0.93344c0.30892,-0.13431 1.01402,-0.13431 1.32965,-0.00671l0.00001,0.00001c0.1703,0.07206 0.35019,0.20321 0.51161,0.36464l1.44927,1.44927c0,-0.00026 0,-0.00051 0,-0.00077c0,-0.42307 0.03357,-0.60439 0.16118,-0.87301c0.18132,-0.3895 0.57752,-0.7857 0.9133,-0.93344c0.30892,-0.13431 1.01402,-0.13431 1.32965,-0.00671l0.00001,0.00001c0.1703,0.07206 0.35019,0.20321 0.51161,0.36464l3.17028,3.17028c0.27343,-0.16387 0.56879,-0.33798 0.87114,-0.51302l0.95908,-0.55688l-3.258,-3.258c-0.13225,-0.13225 -0.30914,-0.37319 -0.4074,-0.56358c-0.24846,-0.51708 -0.26189,-1.2222 -0.03357,-1.73258c0.26189,-0.56409 0.79913,-1.02746 1.39009,-1.18191c0.30219,-0.08058 1.06775,-0.01343 1.32294,0.11417l0.00004,0.00004c0.92015,0.46345 7.48095,4.32471 7.6757,4.51275l4.50732,4.50732c-1.33092,9.73705 -9.03308,17.44551 -18.76709,18.78598z" fill="url(#color-1)" stroke-width="1"></path><path d="M33.61312,17.98711c0.92001,0.46336 7.48098,4.32473 7.67572,4.51276c0.13431,0.13431 0.32234,0.39621 0.42307,0.57753c0.14774,0.28876 0.1746,0.42979 0.1746,0.87972c0,0.62453 -0.16789,1.04761 -0.5641,1.44382c-0.18803,0.18803 -6.39308,3.84122 -7.65558,4.50605c-0.4365,0.22832 -1.30951,0.22832 -1.74601,0.00672c-0.76556,-0.39621 -1.1752,-1.06104 -1.16848,-1.89375c0,-0.59096 0.16789,-1.01403 0.5641,-1.41024c0.12759,-0.12759 1.1752,-0.77899 2.32354,-1.44382l2.08178,-1.20878l-2.04149,-1.1752c-1.12819,-0.6514 -2.16237,-1.28265 -2.30339,-1.39681c-0.13431,-0.12088 -0.33577,-0.38949 -0.44322,-0.59767c-0.24847,-0.51709 -0.2619,-1.22221 -0.03358,-1.73258c0.2619,-0.5641 0.79913,-1.02746 1.39009,-1.18191c0.30219,-0.08059 1.06775,-0.01343 1.32294,0.11416zM16.08588,18.0677c0.93344,0.40964 1.43038,1.59155 1.0879,2.59215c-0.20146,0.59096 -0.57081,0.88644 -2.47799,1.98105c-0.9603,0.55738 -1.89375,1.09461 -2.06835,1.20206l-0.32906,0.19475l2.03477,1.16848c1.12148,0.64468 2.15565,1.27593 2.30339,1.40352c1.02746,0.92001 0.77899,2.71974 -0.46336,3.33085c-0.42307,0.20818 -1.07447,0.28205 -1.47739,0.16789c-0.38278,-0.10073 -7.66901,-4.33145 -7.97792,-4.62692c-0.80585,-0.77899 -0.80585,-2.14222 0,-2.90778c0.28205,-0.27533 7.48769,-4.46575 7.91076,-4.60678c0.36935,-0.12088 1.07447,-0.07387 1.45725,0.10073zM20.15542,22.14396c0.3492,0.14774 0.7387,0.54395 0.92673,0.94016c0.12759,0.26862 0.16117,0.44993 0.16117,0.873c0,0.63796 -0.16789,1.06775 -0.57753,1.45725c-0.34249,0.32906 -0.67154,0.45665 -1.16848,0.45665c-0.49694,0 -0.826,-0.12759 -1.16848,-0.45665c-0.40964,-0.38949 -0.57753,-0.81928 -0.57753,-1.45725c0,-0.42307 0.03358,-0.60439 0.16117,-0.873c0.18132,-0.38949 0.57753,-0.7857 0.9133,-0.93344c0.30891,-0.13431 1.01403,-0.13431 1.32965,-0.00672zM24.72191,22.14396c0.3492,0.14774 0.7387,0.54395 0.92673,0.94016c0.12759,0.26862 0.16117,0.44993 0.16117,0.873c0,0.63796 -0.16789,1.06775 -0.57753,1.45725c-0.34249,0.32906 -0.67154,0.45665 -1.16848,0.45665c-0.49694,0 -0.826,-0.12759 -1.16848,-0.45665c-0.40964,-0.38949 -0.57753,-0.81928 -0.57753,-1.45725c0,-0.42307 0.03358,-0.60439 0.16117,-0.873c0.18132,-0.38949 0.57753,-0.7857 0.9133,-0.93344c0.30891,-0.13431 1.01403,-0.13431 1.32965,-0.00672zM29.08693,22.14396c0.3492,0.14774 0.7387,0.54395 0.92673,0.94016c0.12759,0.26862 0.16117,0.44993 0.16117,0.873c0,0.63796 -0.16789,1.06775 -0.57753,1.45725c-0.34249,0.32906 -0.67154,0.45665 -1.16848,0.45665c-0.49694,0 -0.826,-0.12759 -1.16848,-0.45665c-0.40964,-0.38949 -0.57753,-0.81928 -0.57753,-1.45725c0,-0.42307 0.03358,-0.60439 0.16117,-0.873c0.18132,-0.38949 0.57753,-0.7857 0.9133,-0.93344c0.30891,-0.13431 1.01403,-0.13431 1.32965,-0.00672z" fill="none" stroke-width="0"></path><path d="M33.61312,17.98711c0.92001,0.46336 7.48098,4.32473 7.67572,4.51276c0.13431,0.13431 0.32234,0.39621 0.42307,0.57753c0.14774,0.28876 0.1746,0.42979 0.1746,0.87972c0,0.62453 -0.16789,1.04761 -0.5641,1.44382c-0.18803,0.18803 -6.39308,3.84122 -7.65558,4.50605c-0.4365,0.22832 -1.30951,0.22832 -1.74601,0.00672c-0.76556,-0.39621 -1.1752,-1.06104 -1.16848,-1.89375c0,-0.59096 0.16789,-1.01403 0.5641,-1.41024c0.12759,-0.12759 1.1752,-0.77899 2.32354,-1.44382l2.08178,-1.20878l-2.04149,-1.1752c-1.12819,-0.6514 -2.16237,-1.28265 -2.30339,-1.39681c-0.13431,-0.12088 -0.33577,-0.38949 -0.44322,-0.59767c-0.24847,-0.51709 -0.2619,-1.22221 -0.03358,-1.73258c0.2619,-0.5641 0.79913,-1.02746 1.39009,-1.18191c0.30219,-0.08059 1.06775,-0.01343 1.32294,0.11416zM16.08588,18.0677c0.93344,0.40964 1.43038,1.59155 1.0879,2.59215c-0.20146,0.59096 -0.57081,0.88644 -2.47799,1.98105c-0.9603,0.55738 -1.89375,1.09461 -2.06835,1.20206l-0.32906,0.19475l2.03477,1.16848c1.12148,0.64468 2.15565,1.27593 2.30339,1.40352c1.02746,0.92001 0.77899,2.71974 -0.46336,3.33085c-0.42307,0.20818 -1.07447,0.28205 -1.47739,0.16789c-0.38278,-0.10073 -7.66901,-4.33145 -7.97792,-4.62692c-0.80585,-0.77899 -0.80585,-2.14222 0,-2.90778c0.28205,-0.27533 7.48769,-4.46575 7.91076,-4.60678c0.36935,-0.12088 1.07447,-0.07387 1.45725,0.10073zM20.15542,22.14396c0.3492,0.14774 0.7387,0.54395 0.92673,0.94016c0.12759,0.26862 0.16117,0.44993 0.16117,0.873c0,0.63796 -0.16789,1.06775 -0.57753,1.45725c-0.34249,0.32906 -0.67154,0.45665 -1.16848,0.45665c-0.49694,0 -0.826,-0.12759 -1.16848,-0.45665c-0.40964,-0.38949 -0.57753,-0.81928 -0.57753,-1.45725c0,-0.42307 0.03358,-0.60439 0.16117,-0.873c0.18132,-0.38949 0.57753,-0.7857 0.9133,-0.93344c0.30891,-0.13431 1.01403,-0.13431 1.32965,-0.00672zM24.72191,22.14396c0.3492,0.14774 0.7387,0.54395 0.92673,0.94016c0.12759,0.26862 0.16117,0.44993 0.16117,0.873c0,0.63796 -0.16789,1.06775 -0.57753,1.45725c-0.34249,0.32906 -0.67154,0.45665 -1.16848,0.45665c-0.49694,0 -0.826,-0.12759 -1.16848,-0.45665c-0.40964,-0.38949 -0.57753,-0.81928 -0.57753,-1.45725c0,-0.42307 0.03358,-0.60439 0.16117,-0.873c0.18132,-0.38949 0.57753,-0.7857 0.9133,-0.93344c0.30891,-0.13431 1.01403,-0.13431 1.32965,-0.00672zM29.08693,22.14396c0.3492,0.14774 0.7387,0.54395 0.92673,0.94016c0.12759,0.26862 0.16117,0.44993 0.16117,0.873c0,0.63796 -0.16789,1.06775 -0.57753,1.45725c-0.34249,0.32906 -0.67154,0.45665 -1.16848,0.45665c-0.49694,0 -0.826,-0.12759 -1.16848,-0.45665c-0.40964,-0.38949 -0.57753,-0.81928 -0.57753,-1.45725c0,-0.42307 0.03358,-0.60439 0.16117,-0.873c0.18132,-0.38949 0.57753,-0.7857 0.9133,-0.93344c0.30891,-0.13431 1.01403,-0.13431 1.32965,-0.00672z" fill="#ffffff" stroke-width="0"></path><path d="M2,24c0,-12.15026 9.84974,-22 22,-22c12.15026,0 22,9.84974 22,22c0,12.15026 -9.84974,22 -22,22c-12.15026,0 -22,-9.84974 -22,-22z" id="base 1 1 1" fill="none" stroke-width="1"></path><g fill="#000000" stroke-width="1" font-family="Roboto, sans-serif" font-weight="400" font-size="14" text-anchor="start"><g></g></g><rect x="2" y="2" width="44" height="22" fill="none" stroke-width="1"></rect><path d="M2,24v-22h44v22z" fill="none" stroke-width="1"></path><path d="M2,24v-22h44v22z" fill="none" stroke-width="1"></path><path d="M2,24v-22h44v22z" fill="none" stroke-width="1"></path><path d="M2,24v-22h44v22z" fill="none" stroke-width="1"></path></g></svg>